<svg width="50" height="50" viewBox="0 0 50 50" fill="none" xmlns="http://www.w3.org/2000/svg">
<path d="M18.3333 35L22.2222 31.0417L16.1806 25L22.2222 18.9583L18.3333 15L8.33333 25L18.3333 35ZM31.6667 35L41.6667 25L31.6667 15L27.7778 18.9583L33.8194 25L27.7778 31.0417L31.6667 35ZM5.55556 50C4.02778 50 2.71944 49.4565 1.63056 48.3694C0.543518 47.2806 0 45.9722 0 44.4444V5.55556C0 4.02778 0.543518 2.71944 1.63056 1.63056C2.71944 0.543518 4.02778 0 5.55556 0H44.4444C45.9722 0 47.2806 0.543518 48.3694 1.63056C49.4565 2.71944 50 4.02778 50 5.55556V44.4444C50 45.9722 49.4565 47.2806 48.3694 48.3694C47.2806 49.4565 45.9722 50 44.4444 50H5.55556Z" fill="black"/>
</svg>
