<svg width="32" height="33" viewBox="0 0 32 33" fill="none" xmlns="http://www.w3.org/2000/svg">
<path d="M24.1867 18.7871C23.6711 19.3004 22.2489 18.7046 21.4489 18.1179L21.4444 18.1133C21.2844 18.0079 20.7511 17.9942 20.7511 17.9942L20.1511 17.1554L19.8 16.665V16.0783L19.7911 16.6512L19.8 16.665V27.7887C19.8 28.6779 19.1022 29.3929 18.2444 29.3929C17.4311 29.3929 16.7733 28.7604 16.6978 27.9446C16.6933 27.8942 16.6889 27.8392 16.6889 27.7887L16.6489 17.7971C16.566 18.1672 16.3582 18.4948 16.0627 18.7215C15.7671 18.9481 15.4031 19.0591 15.0356 19.0346C14.6609 19.0113 14.3073 18.8482 14.0407 18.5758C13.7741 18.3034 13.6127 17.9403 13.5867 17.5542H13.5289C13.52 17.6321 13.4978 17.7054 13.4756 17.7787C13.4578 17.8246 13.44 17.875 13.4178 17.9208C13.3822 18.0125 13.3289 18.0996 13.2711 18.1821C13.2444 18.2233 13.2178 18.26 13.1822 18.2967C13.12 18.3746 13.0489 18.4433 12.9733 18.5029C12.9422 18.5304 12.9067 18.5533 12.8756 18.5808C12.7511 18.6679 12.6089 18.7412 12.4578 18.7825C12.2978 18.8375 12.1244 18.8604 11.9422 18.8512H11.9244C11.9022 18.8512 11.8756 18.8512 11.8578 18.8467C11.8311 18.8421 11.8133 18.8421 11.7867 18.8375C11.6844 18.8237 11.5867 18.7962 11.4933 18.7642C11.4 18.7275 11.3111 18.6862 11.2267 18.6358C11.0999 18.5605 10.9846 18.4663 10.8844 18.3562C10.7133 18.1724 10.5869 17.9494 10.5156 17.7054C10.5067 17.6779 10.5022 17.6504 10.4978 17.6229C10.4891 17.6011 10.4846 17.5778 10.4844 17.5542C10.48 17.5404 10.48 17.5312 10.4756 17.5175C10.4756 17.5312 10.48 17.5404 10.48 17.5542H10.3956C10.3066 17.9075 10.1027 18.2187 9.81792 18.4356C9.53315 18.6526 9.18479 18.7621 8.83111 18.7458C8.49992 18.7309 8.18203 18.6072 7.92379 18.3928C7.66556 18.1785 7.48048 17.8846 7.39555 17.5542C7.36 17.4212 7.34222 17.2883 7.34222 17.1462C7.34222 17.1462 7.33822 14.234 7.34222 11.9487C7.20622 7.96262 10.6444 3.63458 14.6578 3.63458C17.9244 4.3725 21.7022 4.37708 22.08 13.6446C24.44 16.8667 24.7822 18.1912 24.1867 18.7871Z" fill="#FCEA2B"/>
<path d="M7.34223 17.0761V11.1755C7.34223 7.01021 10.6169 3.63321 14.6565 3.63321C18.696 3.63321 21.9698 7.01021 21.9698 11.1755M10.4502 17.2104C10.433 17.6355 10.2527 18.0361 9.94897 18.3241C9.64529 18.6121 9.2431 18.7639 8.8309 18.7461C8.41869 18.7283 8.03023 18.5423 7.75097 18.2291C7.47171 17.916 7.32452 17.5012 7.34179 17.0761M13.56 17.3172C13.5427 17.7423 13.3624 18.1429 13.0587 18.4309C12.7551 18.7189 12.3529 18.8707 11.9407 18.8529C11.5285 18.835 11.14 18.6491 10.8607 18.3359C10.5815 18.0228 10.4343 17.608 10.4516 17.1829" stroke="black" stroke-width="2" stroke-miterlimit="10" stroke-linecap="round" stroke-linejoin="round"/>
<path d="M13.5582 17.3786C13.5442 17.5904 13.4895 17.7971 13.3973 17.9869C13.3052 18.1767 13.1775 18.3458 13.0215 18.4843C12.8656 18.6228 12.6845 18.728 12.4889 18.7939C12.2932 18.8597 12.0868 18.8848 11.8817 18.8678C11.6765 18.8508 11.4767 18.792 11.2937 18.6948C11.1108 18.5975 10.9483 18.4638 10.8159 18.3014C10.6834 18.139 10.5835 17.951 10.5219 17.7485C10.4604 17.546 10.4384 17.3328 10.4573 17.1215M16.688 17.5363C16.6616 17.9609 16.4727 18.3573 16.1629 18.6383C15.8531 18.9193 15.4478 19.0618 15.036 19.0346C14.6243 19.0074 14.2399 18.8126 13.9674 18.4931C13.695 18.1736 13.5567 17.7556 13.5831 17.331M16.688 17.5532V27.7906C16.688 28.216 16.8519 28.6241 17.1436 28.9249C17.4354 29.2257 17.831 29.3948 18.2436 29.3948C18.6561 29.3948 19.0518 29.2257 19.3435 28.9249C19.6352 28.6241 19.7991 28.216 19.7991 27.7906V15.053M21.1147 17.7315L21.9849 18.7463C22.1268 18.8979 22.2963 19.0192 22.4836 19.1033C22.671 19.1873 22.8726 19.2325 23.0769 19.2362C23.2812 19.2399 23.4842 19.202 23.6743 19.1248C23.8644 19.0476 24.0379 18.9325 24.1848 18.7861C24.3318 18.6397 24.4494 18.4649 24.5308 18.2717C24.6123 18.0784 24.656 17.8705 24.6595 17.6598C24.663 17.4492 24.6262 17.2398 24.5513 17.0438C24.4763 16.8478 24.3647 16.6689 24.2227 16.5174L23.4134 15.4261M23.4374 15.4541C22.5694 14.4714 21.9378 13.0854 21.9698 11.0898" stroke="black" stroke-width="2" stroke-miterlimit="10" stroke-linecap="round" stroke-linejoin="round"/>
</svg>
