<svg width="50" height="50" viewBox="0 0 50 50" fill="none" xmlns="http://www.w3.org/2000/svg">
<g clip-path="url(#clip0_1_155)">
<path d="M8.85417 0.625C3.95833 0.625 0 4.58333 0 9.47917V40.5208C0 45.4167 3.95833 49.375 8.85417 49.375H41.1458C46.0417 49.375 50 45.4167 50 40.5208V9.47917C50 4.58333 46.0417 0.625 41.1458 0.625H8.85417ZM32.4167 11.3125H36.6458C36.75 11.2917 36.8333 11.375 36.8542 11.4583V31.3333C36.8542 31.7083 36.875 32.125 36.8958 32.5833C36.9375 33.0208 36.9583 33.4375 36.9792 33.7917C36.9792 33.9375 36.9167 34.0625 36.7708 34.125C35.6875 34.5833 34.5417 34.9167 33.375 35.125C32.3333 35.3125 31.25 35.4167 30.1667 35.4167C28.625 35.4375 27.0833 35.125 25.6875 34.4792C24.375 33.875 23.2917 32.875 22.5417 31.6458C21.7708 30.375 21.3958 28.7917 21.3958 26.8958C21.375 25.3542 21.7708 23.8333 22.5417 22.5C23.3333 21.1458 24.4792 20.0208 25.8542 19.2708C27.3125 18.4583 29.0625 18.0625 31.125 18.0625C31.2292 18.0625 31.375 18.0625 31.5625 18.0833C31.75 18.1042 31.9583 18.1042 32.2083 18.125V11.5417C32.2083 11.3958 32.2708 11.3125 32.4167 11.3125ZM13.8125 13.1042H17.875C18 13.0833 18.125 13.1667 18.1458 13.3125C18.1667 13.3333 18.1667 13.3542 18.1667 13.375V34.75C18.1667 34.9792 18.0625 35.0833 17.875 35.0833H13.7917C13.6042 35.0833 13.5208 34.9792 13.5208 34.75V13.375C13.5208 13.1875 13.625 13.1042 13.8125 13.1042ZM30.9583 21.9375C30.1458 21.9375 29.3333 22.1042 28.6042 22.4792C27.8958 22.8333 27.2917 23.3542 26.8333 24.0208C26.375 24.6875 26.1458 25.5833 26.1458 26.6667C26.125 27.3958 26.25 28.125 26.5 28.8125C26.7083 29.375 27.0208 29.875 27.4375 30.2917C27.8333 30.6667 28.3125 30.9583 28.8542 31.125C29.4167 31.3125 30 31.3958 30.5833 31.3958C30.8958 31.3958 31.1875 31.375 31.4583 31.3542C31.7292 31.375 31.9792 31.3333 32.2083 31.25V22.0833C31.7989 21.9855 31.3793 21.9366 30.9583 21.9375Z" fill="black"/>
</g>
<defs>
<clipPath id="clip0_1_155">
<rect width="50" height="50" fill="white"/>
</clipPath>
</defs>
</svg>
