<svg width="37" height="37" viewBox="0 0 37 37" fill="none" xmlns="http://www.w3.org/2000/svg">
<path d="M13.9366 33.2075C15.4166 33.6546 16.9121 33.9167 18.5 33.9167C22.5887 33.9167 26.51 32.2924 29.4012 29.4012C32.2924 26.5101 33.9166 22.5888 33.9166 18.5C33.9166 16.4755 33.5179 14.4707 32.7431 12.6003C31.9684 10.7299 30.8328 9.03035 29.4012 7.59878C27.9696 6.16721 26.2701 5.03163 24.3997 4.25687C22.5292 3.48211 20.5245 3.08334 18.5 3.08334C16.4754 3.08334 14.4707 3.48211 12.6003 4.25687C10.7298 5.03163 9.03032 6.16721 7.59875 7.59878C4.70756 10.49 3.08331 14.4113 3.08331 18.5C3.08331 25.0521 7.19956 30.6792 13.0116 32.8992C12.8729 31.6967 12.7341 29.7079 13.0116 28.3358L14.7846 20.72C14.7846 20.72 14.3375 19.8258 14.3375 18.4075C14.3375 16.28 15.6633 14.6921 17.1741 14.6921C18.5 14.6921 19.1166 15.6633 19.1166 16.9121C19.1166 18.2379 18.2379 20.1342 17.7908 21.9533C17.5287 23.4642 18.5925 24.79 20.1341 24.79C22.8783 24.79 25.0058 21.8608 25.0058 17.7292C25.0058 14.0292 22.3541 11.5008 18.5462 11.5008C14.1987 11.5008 11.6396 14.7383 11.6396 18.1454C11.6396 19.4713 12.0712 20.8125 12.7804 21.6913C12.9191 21.7838 12.9191 21.9071 12.8729 22.1383L12.4258 23.8188C12.4258 24.0808 12.2562 24.1733 11.9941 23.9883C10.0208 23.125 8.87998 20.3192 8.87998 18.0529C8.87998 13.1813 12.3333 8.75668 18.9933 8.75668C24.2966 8.75668 28.4283 12.5646 28.4283 17.6213C28.4283 22.9246 25.1446 27.1796 20.4425 27.1796C18.9471 27.1796 17.4825 26.3779 16.9583 25.4375L15.9254 29.0913C15.5708 30.4171 14.5996 32.19 13.9366 33.2538V33.2075Z" fill="black"/>
</svg>
