<svg width="37" height="37" viewBox="0 0 37 37" fill="none" xmlns="http://www.w3.org/2000/svg">
<path d="M34.6258 9.24999C33.4387 9.78957 32.1591 10.1442 30.8333 10.3137C32.19 9.49666 33.2383 8.20166 33.7316 6.64457C32.4521 7.41541 31.0337 7.95499 29.5383 8.26332C28.3204 6.93749 26.6091 6.16666 24.6666 6.16666C21.0437 6.16666 18.0837 9.12666 18.0837 12.7804C18.0837 13.3046 18.1454 13.8133 18.2533 14.2912C12.765 14.0137 7.8779 11.3775 4.62498 7.38457C4.05456 8.35582 3.73081 9.49666 3.73081 10.6992C3.73081 12.9962 4.88706 15.0312 6.6754 16.1875C5.58081 16.1875 4.56331 15.8792 3.66915 15.4167V15.4629C3.66915 18.6696 5.95081 21.3521 8.97248 21.9533C8.00235 22.2188 6.98388 22.2558 5.99706 22.0612C6.41579 23.3755 7.23585 24.5255 8.34196 25.3495C9.44808 26.1736 10.7846 26.6303 12.1637 26.6554C9.82599 28.5061 6.92822 29.5064 3.94665 29.4921C3.42248 29.4921 2.89831 29.4612 2.37415 29.3996C5.30331 31.2804 8.78748 32.375 12.5183 32.375C24.6666 32.375 31.3421 22.2925 31.3421 13.5512C31.3421 13.2583 31.3421 12.9808 31.3266 12.6879C32.6216 11.7629 33.7316 10.5912 34.6258 9.24999Z" fill="black"/>
</svg>
