<svg width="50" height="50" viewBox="0 0 50 50" fill="none" xmlns="http://www.w3.org/2000/svg">
<path fill-rule="evenodd" clip-rule="evenodd" d="M0 25C0 11.1932 11.1932 0 25 0C38.8068 0 50 11.1932 50 25C50 38.8068 38.8068 50 25 50C11.1932 50 0 38.8068 0 25ZM31.3636 19.0909C31.002 18.6087 30.4636 18.2899 29.8669 18.2047C29.2702 18.1194 28.664 18.2747 28.1818 18.6364C27.6996 18.998 27.3808 19.5364 27.2956 20.1331C27.2103 20.7298 27.3656 21.336 27.7273 21.8182L30.1136 25L27.7273 28.1818C27.3656 28.664 27.2103 29.2702 27.2956 29.8669C27.3808 30.4636 27.6996 31.002 28.1818 31.3636C28.664 31.7253 29.2702 31.8806 29.8669 31.7953C30.4636 31.7101 31.002 31.3913 31.3636 30.9091L32.9545 28.7886L34.5455 30.9091C34.9071 31.3913 35.4455 31.7101 36.0422 31.7953C36.3377 31.8375 36.6386 31.8211 36.9277 31.7471C37.2168 31.673 37.4885 31.5427 37.7273 31.3636C37.966 31.1846 38.1672 30.9602 38.3193 30.7034C38.4713 30.4466 38.5713 30.1623 38.6135 29.8669C38.6557 29.5714 38.6393 29.2705 38.5653 28.9814C38.4912 28.6923 38.3609 28.4206 38.1818 28.1818L35.7955 25L38.1818 21.8182C38.5435 21.336 38.6988 20.7298 38.6135 20.1331C38.5283 19.5364 38.2095 18.998 37.7273 18.6364C37.4885 18.4573 37.2168 18.327 36.9277 18.2529C36.6386 18.1789 36.3377 18.1625 36.0422 18.2047C35.4455 18.2899 34.9071 18.6087 34.5455 19.0909L32.9545 21.2114L31.3636 19.0909ZM15.9091 20.4545C15.9091 19.8518 15.6696 19.2737 15.2434 18.8475C14.8172 18.4213 14.2391 18.1818 13.6364 18.1818C13.0336 18.1818 12.4555 18.4213 12.0293 18.8475C11.6031 19.2737 11.3636 19.8518 11.3636 20.4545V25C11.3636 26.1205 11.6818 27.7523 12.7 29.1682C13.8045 30.7045 15.6227 31.8182 18.1818 31.8182C20.7409 31.8182 22.5591 30.7 23.6636 29.1682C24.6818 27.7523 25 26.1227 25 25V20.4545C25 19.8518 24.7606 19.2737 24.3343 18.8475C23.9081 18.4213 23.33 18.1818 22.7273 18.1818C22.1245 18.1818 21.5464 18.4213 21.1202 18.8475C20.694 19.2737 20.4545 19.8518 20.4545 20.4545V25C20.4545 25.3932 20.3182 26.0364 19.9727 26.5136C19.7136 26.875 19.2591 27.2727 18.1818 27.2727C17.1045 27.2727 16.65 26.875 16.3909 26.5136C16.0884 26.0658 15.9211 25.5403 15.9091 25V20.4545Z" fill="black"/>
</svg>
